<svg viewBox="0 0 727.32 641.03" xmlns="http://www.w3.org/2000/svg"><path d="m503.3 108.78a194.24 194.24 0 0 0 -95.95 25.22l-.08.05q-8.33 4.71-16.12 10.2c-167.66 112.71-75.48 275.39-75.48 275.39a10.39 10.39 0 0 0 8.86-14.46c-10.32-24.11-28-77.68-13.17-136.66a196.35 196.35 0 0 0 -3.23 35.48c0 107.79 87.38 195.17 195.17 195.17s195.16-87.43 195.16-195.17-87.38-195.22-195.16-195.22z" fill="#d5ecf5" opacity=".4"/><ellipse cx="394.44" cy="466.46" fill="#fff" rx="14.46" ry="33.67" transform="matrix(.9640954 -.26555612 .26555612 .9640954 -109.72 121.51)"/><ellipse cx="414.91" cy="455.97" fill="#fff" rx="5.58" ry="13" transform="matrix(.9640954 -.26555612 .26555612 .9640954 -106.2 126.57)"/><path d="m206.12 370.66a120.36 120.36 0 0 0 -57.47-21.66h-.06c-3.93-.41-7.86-.61-11.79-.63-125-3.19-136.8 112-136.8 112a6.44 6.44 0 0 0 9.66-4.13c3.42-15.9 13.71-49.24 42.34-73.74a120.84 120.84 0 1 0 154.14-11.84z" fill="#ffd488" opacity=".4"/><ellipse cx="22.98" cy="512.23" fill="#ffd488" rx="20.85" ry="8.95" transform="matrix(.34152807 -.93987157 .93987157 .34152807 -466.3 358.9)"/><ellipse cx="37.07" cy="514.26" fill="#ffd488" rx="8.05" ry="3.46" transform="matrix(.34 -.94 .94 .34 -458.93 373.49)"/><path d="m381 346.46s-26.58-88.93 28.64-180.92a2.57 2.57 0 0 0 -3.56-3.51c-78.84 48.43-49.18 182.38-49.18 182.38" fill="#d5ecf5"/><path d="m385.36 359.54s-37.29 37.78-30.45 174.53a2.07 2.07 0 0 1 -4 .86c-45.4-114.6 3.68-180.52 3.68-180.52" fill="#d5ecf5"/><path d="m409.71 165.47c-55.22 92-28.64 180.92-28.64 180.92l4.36 13.08s-37.29 37.79-30.43 174.53a2.07 2.07 0 0 1 -4 .85c-3.61-9.12-6.62-17.93-9.11-26.42-1.32-116 31.26-149 31.26-149l-4.36-13.08s-25.69-85.8 25.78-176.05a95.56 95.56 0 0 1 11.57-8.3 2.57 2.57 0 0 1 3.57 3.47z" fill="#a8d7e5" opacity=".5"/><path d="m352.89 317s-8.81-62.48 13.11-108" fill="none" stroke="#fff" stroke-linecap="round" stroke-linejoin="round" stroke-width="5.27"/><path d="m210.39 588.42c6.72 11.88 18.87 19.87 31.66 24.64 28.89 10.78 61.07 7 91.2.46s60.21-15.56 91-14.85c38.78.9 75.91 17.26 114.68 18.54a149.39 149.39 0 0 0 69-14.45c7.42-3.54 15-8.26 18.12-15.89 5-12.41-4.25-26-14.62-34.42-26-21.14-62.88-28-94.72-17.63-17.1 5.58-32.8 15.75-50.59 18.38-19.66 2.9-39.27-3.73-58.73-7.73-14.65-3-29.55-4.53-44.42-6.06-35.26-3.61-73.51-6.57-103.55 12.23-2 1.26-4 2.6-5.91 3.94" fill="#d5ecf5" opacity=".4"/><path d="m498.08 585.92c-1.49 1.6-3.7 2.26-5.81 2.83a231.6 231.6 0 0 1 -64.11 7.93c-9.26-.16-19.11-1.1-26.43-6.78a9.74 9.74 0 0 1 -3.37-4.11 10.51 10.51 0 0 1 -.22-5.29s39.51 20.88 101.77-3.75c.34 3.25.36 6.82-1.83 9.17z" fill="#392624"/><path d="m499.91 576.75c-62.26 24.63-101.77 3.75-101.77 3.75 2.07-13.12 13.84-25.24 27.06-24 4.33.42 8.42 2.15 12.66 3.12a36.72 36.72 0 0 0 24.28-2.92l34.48 3.76a87.84 87.84 0 0 1 3.29 16.29z" fill="#66504f"/><path d="m683.8 587.71a10.56 10.56 0 0 1 -1.32 5.13 9.85 9.85 0 0 1 -4.16 3.31c-8.34 4-18.17 2.87-27.26 1.09a231.89 231.89 0 0 1 -61-21.17c-1.94-1-4-2.11-5.09-4-1.65-2.76-.87-6.29.13-9.35 55.7 37.13 98.7 24.99 98.7 24.99z" fill="#392624"/><path d="m683.8 587.71s-43 12.14-98.73-25a88.74 88.74 0 0 1 6.63-15.23l34.51 3.52a36.6 36.6 0 0 0 23.13 8c4.35-.06 8.71-.9 13-.39 13.22 1.52 22.19 15.83 21.46 29.1z" fill="#66504f"/><ellipse cx="479.7" cy="558.18" fill="#392624" rx="20.97" ry="14.89"/><ellipse cx="606.95" cy="547.36" fill="#392624" rx="14.89" ry="20.97" transform="matrix(.27630838 -.96106903 .96106903 .27630838 -86.8 979.44)"/><path d="m459.77 523.78 7.23 30.15a12.62 12.62 0 0 0 13.5 9.62 12.63 12.63 0 0 0 10.93-16l-8.94-31.45z" fill="#f7c4a5"/><path d="m456.29 509 7.25 30.15a12.63 12.63 0 0 0 13.5 9.62 12.64 12.64 0 0 0 10.93-16l-9-31.46z" fill="#ff9976" opacity=".6"/><path d="m627.83 512.83-7.24 30.17a12.63 12.63 0 0 1 -13.51 9.63 12.64 12.64 0 0 1 -10.93-16l9-31.46z" fill="#f7c4a5"/><path d="m629.41 505.28-7.24 30.15a12.63 12.63 0 0 1 -13.5 9.62 12.63 12.63 0 0 1 -10.93-16l8.94-31.46z" fill="#ff9976" opacity=".6"/><path d="m509.9 355.26s-108.18 29.74-71.03 170.74a11.09 11.09 0 0 0 7.47 7.8 57.38 57.38 0 0 0 36.55-.79 11.14 11.14 0 0 0 7-12.69c-5-24.14-13.62-93.91 44.32-122.26" fill="#ffc550"/><path d="m490.05 520.23a11.16 11.16 0 0 1 -7 12.7 54.66 54.66 0 0 1 -18.31 3.39 52.31 52.31 0 0 0 7.12-2.1 11.13 11.13 0 0 0 7-12.69c-5-24.14-13.62-93.91 44.33-122.26a97.38 97.38 0 0 1 10.4-2.67l.78 1.37c-57.94 28.35-49.29 98.13-44.32 122.26z" fill="#fca915"/><path d="m557.2 397.22s36.39 37.77 25.39 122.5a9.65 9.65 0 0 0 6 10.18 63.46 63.46 0 0 0 48.06 0 9.73 9.73 0 0 0 6.08-8.57c1-22.53-.49-104.47-66.05-165.89" fill="#ffc550"/><path d="m619.9 534.21a64.26 64.26 0 0 1 -31.34-4.31 9.67 9.67 0 0 1 -6-10.18c11-84.73-25.38-122.5-25.38-122.5l4.55-9.78 9.82 9.78s36.45 37.78 25.45 122.5a9.65 9.65 0 0 0 6 10.18 65 65 0 0 0 16.9 4.31z" fill="#fca915"/><circle cx="541.74" cy="355.34" fill="#ffc550" r="45.43"/><path d="m587.17 355.41a45.43 45.43 0 1 1 -90.86 0 46.37 46.37 0 0 1 .46-6.5 45.44 45.44 0 0 0 89.94 0 46.37 46.37 0 0 1 .46 6.5z" fill="#fca915"/><path d="m433.12 465.48c1.55-16.68 5.55-32.63 10.24-48.67.54-1.86-2.36-2.65-2.9-.8-4.76 16.31-8.77 32.52-10.34 49.47-.18 1.92 2.82 1.91 3 0z" fill="#ffeac5"/><path d="m102.07 603.73a196.14 196.14 0 0 0 28.61-53.82l12.83 8.09a53.19 53.19 0 0 0 10.56-12l6.3 2.08q16-35.26 33.21-70c36.91 29.92 74.32 60.24 101.86 98.92a579.78 579.78 0 0 1 -191.79 27.18" fill="#a5a5a5"/><path d="m84 609a196.46 196.46 0 0 0 28.61-53.83l12.83 8.12a53.19 53.19 0 0 0 10.56-12.09l6.3 2.08q16-35.26 33.2-69.95c36.92 29.87 74.33 60.25 101.87 98.94a580.3 580.3 0 0 1 -191.83 27.18" fill="#898989"/><path d="m2.82 587.88a196.05 196.05 0 0 0 38.91-46.88l10.92 10.5a53.28 53.28 0 0 0 12.79-9.69l5.75 3.31q22.81-31.29 46.66-61.79c30.12 36.72 60.6 74 79.75 117.5a580.09 580.09 0 0 1 -193.32-12.18" fill="#a5a5a5"/><path d="m52.3 597.82c15.31-13.49 22.34-35.49 32.76-53l10.94 10.51a53 53 0 0 0 12.78-9.69l5.76 3.31q22.79-31.31 46.66-61.79c30.12 36.72 5 47.91 24.19 91.37-64.51 6.81-69.91 34.14-133.07 19.29" fill="#898989"/><circle cx="135.5" cy="490.9" fill="#ffd488" r="90.9"/><path d="m143.09 582a90.93 90.93 0 0 1 -91.28-55.05 90.93 90.93 0 0 0 137.84-108.56 90.9 90.9 0 0 1 -46.56 163.61z" fill="#efa003" opacity=".4"/><circle cx="135.5" cy="490.9" fill="none" r="71.34" stroke="#efa003" stroke-miterlimit="10" stroke-width=".94"/><circle cx="135.5" cy="490.9" fill="none" r="80.61" stroke="#efa003" stroke-miterlimit="10" stroke-width="3.91"/><path d="m418.78 346.25c19.12-15.56 29.77-41.69 37.51-65.1 1.87-5.64.38-10.68 3.82-15.52s8.57-8.79 14.47-9.5 12.42 2.5 14.32 8.13c1.14 3.36.58 7-.13 10.49a125.77 125.77 0 0 1 -41.2 69.74 27.35 27.35 0 0 1 -6.33 4.36c-7.69 3.5-16.61.27-24.42-3" fill="#f7c4a5"/><path d="m486.89 282.52a125.87 125.87 0 0 1 -39.33 62 27.66 27.66 0 0 1 -6.33 4.36 17.49 17.49 0 0 1 -7.37 1.52c19.9-16.9 39.91-43.18 42.83-71.22 4.24.82 5.38 2.5 10.2 3.34z" fill="#ff9976" opacity=".6"/><path d="m570.93 266.94c7.92 14.74 8.39 32.43 5.91 49s-7.68 32.59-10.52 49.08c-.32 1.84-.5 4 .85 5.3a5.06 5.06 0 0 0 3.18 1.11c5.79.48 6.76 10.9 10.74 6.67 3.15-3.35 10-20.39 11.77-24.62l8.3-19.61c5.74-13.58 11.23-27.34 13.44-41.91s1.81-30.27-6.47-42.47" fill="#f7c4a5"/><path d="m614.49 292.69c-2.22 14.57-7.48 28-13.22 41.57l-8.27 19.62c-1.79 4.23-8.62 21.27-11.77 24.61-2.57 2.74-3.89-.65-6.06-3.52 3.44-6 8.45-18.44 10-22q4.14-9.81 8.29-19.61c5.74-13.58 12.53-27.33 14.75-41.9a62.39 62.39 0 0 0 -6.57-38.86l6.68-2.74c8.2 12.22 8.38 28.26 6.17 42.83z" fill="#ff9976" opacity=".3"/><path d="m491.17 284c-6.12-1.56-19.24-3.12-25.35-4.68-4.06-1-8.29-2.16-11.42-4.94-6-5.28-6-14.52-4.66-22.38a110.25 110.25 0 0 1 35.62-64c10.95-9.63 24.37-17.19 38.92-18.24 12.64-.91 25.27 3.17 36.18 9.63q3.91 2.32 7.6 5a118.08 118.08 0 0 1 39.28 49.42c3.47 8.18 7.47 17.62 8.88 27.8a2.94 2.94 0 0 1 -1.37 2.89c-5.86 3.68-14 6.65-18.27 8.27-13 4.93-17.9 5-31.75 5.37l13.9-10.05c6.47 11.22 2.17 25.9-.46 42.55l-4.83 22.5-5.78 24.58-8.08.36c-1.05 0-2.09.13-3.13.26a224.53 224.53 0 0 1 -45.26 1.14c-3.84-.29-7.87-.75-11-3-6-4.27-6.42-12.91-6.31-20.3.19-12.56.07-25.23-2.39-37.55s-7.42-24.4-15.9-33.68" fill="#4f5eb7"/><path d="m486.81 185.82a112.3 112.3 0 0 0 -37.18 63.47c-.19.94 1.26 1.34 1.45.39a111 111 0 0 1 36.79-62.8c.73-.62-.33-1.68-1.06-1.06z" fill="#c5d0fc"/><path d="m530.8 182.09a7.67 7.67 0 0 0 2.56-7.27c-3.48-18.64 1.6-38.23 11.41-54.46a59.34 59.34 0 0 0 4.44-8 40.23 40.23 0 0 0 2.37-10.61q1.71-14.64 2.48-29.38c.13-2.52.17-5.15-1-7.37-1.47-2.81-4.53-4.35-7.38-5.74-10.89-5.26-21.68-11-33.17-14.67s-24.09-5.2-35.74-1.91-22.18 12-25.44 23.66a21.3 21.3 0 0 0 -.53 10.18c1.49 6.85 7.15 12.17 8.9 19 2.22 8.64-2.3 17.78-.88 26.59 1.39 8.61 8.3 15.41 16 19.57s16.22 6.25 24.32 9.46h.05a63.23 63.23 0 0 1 4.14 26.36 7.62 7.62 0 0 0 3.2 6.72c4.67 3.27 13.66 6.84 24.27-2.13z" fill="#f7c4a5"/><path d="m533.37 174.86a7.67 7.67 0 0 1 -2.56 7.27c-10.61 9-19.6 5.4-24.3 2.15a7.61 7.61 0 0 1 -3.2-6.72c.06-.94 0 .94 0 0 5 .75 12.68-1.29 17.12-3.86 6.58-3.81 9-12.48 10.78-19.85.76-3 1.11-6.28 2.65-9a9.12 9.12 0 0 1 1.07-1.5 75.66 75.66 0 0 0 -2.65 19.53 65.49 65.49 0 0 0 1.09 11.98z" fill="#ff9976" opacity=".6"/><path d="m532.58 174.9c1.28 12.94-26.71 16.22-27.06 2.7 0-1.93-3-1.94-3 0 .45 17.58 34.71 14 33.06-2.7-.19-1.91-3.19-1.93-3 0z" fill="#172975"/><path d="m532.59 157.38a87 87 0 0 1 12.41-36.38.75.75 0 0 0 -1.3-.76 89 89 0 0 0 -12.59 37.14c-.09 1 1.41 1 1.5 0z" fill="#ff9976"/><path d="m459.41 95.68c1.85 8.84-2 17.52-.9 26.4.11 1 1.62 1 1.5 0-1.09-9 2.73-17.8.85-26.79-.2-1-1.64-.55-1.45.39z" fill="#ffe8dc"/><path d="m488.48 79.17a22.71 22.71 0 0 0 9 0c2.55-.38 5.34-1 6.88-3 1.71-2.31 1.17-5.63-.16-8.19a5.45 5.45 0 0 0 -1.22-1.67 4.49 4.49 0 0 0 -4.75-.32 13.36 13.36 0 0 0 -3.83 3.21l-5.8 6.2c-.79.86-1.64 2.08-1.06 3.09s1.71 1 2.71.92" fill="#392624"/><path d="m472.53 23.47s-29.73 3.23-41.95-12.57c0 0 22.75 10.78 48.22-.42 25.08-11.03 55.53 34.52 55.53 34.52" fill="#1e1312"/><path d="m548.09 89.63s-3.69 22.52 7.85 32.48a47.49 47.49 0 0 1 2.3-36.72c9.44-18.67-24-43.74-24-43.74" fill="#392624"/><path d="m551.55 87.37s-3.69 22.52 7.86 32.48a47.45 47.45 0 0 1 2.29-36.72c9.44-18.66-24-43.74-24-43.74" fill="#392624"/><path d="m530.58 64s-7.13 5.62-5.47 19.45c.21 1.8-6.56 4.42-8.37 4.42l.92 7.26c-1.36 0-4.47-2.56-4.82-3.87-2.77-10.18 4.73-32.82 4.73-32.82" fill="#392624"/><path d="m540.37 98.92s-1.55 5.94 6.44 19.18l12.51-24.26-1.22-12" fill="#392624"/><path d="m514.75 67.75a61.9 61.9 0 0 0 -1.2 6.36 2.1 2.1 0 0 1 -.55-.56 41 41 0 0 0 -3.9-5.06 19.28 19.28 0 0 0 -5.72-3.49c-8.06-3.53-16.36-3.5-25.08-2.38-7.55 1-15.47 2.19-23.05 1.49a6.33 6.33 0 0 1 -2.93-.83 27.65 27.65 0 0 1 1.46-3.12 37.28 37.28 0 0 0 17.67-3.16c2.5-.18 5-.37 7.47-.52 11.07-.65 23.12.06 31.67 7.11a31.15 31.15 0 0 1 4.16 4.16z" fill="#ff9976" opacity=".6"/><path d="m552.75 105c-13.06-3.28-22.19-14.8-29.6-26-3-4.57-6-9.3-10.22-12.78-8.56-7-20.61-7.76-31.68-7.1s-22.47 2.3-33-1.13c-8.59-2.8-15.87-8.82-21.38-16s-9.42-15.42-12.8-23.8a64 64 0 0 0 22.67 8.42c5.31.89 10.86 1.08 16-.59 10.08-3.31 16.77-13.19 26.6-17.15a37.26 37.26 0 0 1 13.17-2.29 70.93 70.93 0 0 1 72 78.43c-.82 7.72-3.44 16-10.07 20.08" fill="#392624"/><path d="m464 52.86s-24.35 6.62-37.4-5.06c0 0 21 18.5 45 5.65" fill="#392624"/><path d="m472.42 52.65s-22.56 11.35-37.66 2.42c0 0 26.9 14.25 47.84-3.08" fill="#392624"/><ellipse cx="528.67" cy="91.74" fill="#f7c4a5" rx="13.1" ry="15.96"/><path d="m469.35 85.23a2.81 2.81 0 0 1 -1.11 2c-2.4 2.11-5.94 2.23-9.13 1.93-.75-.07-1.5-.16-2.24-.27-.36-.66-.74-1.3-1.13-2a25.3 25.3 0 0 0 12.93-2.12 4.14 4.14 0 0 0 .53-.3 1.93 1.93 0 0 1 .15.76z" fill="#ff9976" opacity=".6"/><path d="m446.81 83.2a30.76 30.76 0 0 1 .17-6.29 3.43 3.43 0 0 1 .84-2.22c.95-.86 2.45-.45 3.65 0l18 6.81c.59.22 1.22.47 1.27 1.33a2 2 0 0 1 -1.09 1.82 25.35 25.35 0 0 1 -21 .77 3.1 3.1 0 0 1 -1.85-2.22z" fill="#392624"/><ellipse cx="456.38" cy="70.44" fill="#fff" rx="3.36" ry="2.41" transform="matrix(.59229446 -.80572158 .80572158 .59229446 129.31 396.43)"/><ellipse cx="461.55" cy="67.25" fill="#fff" rx="1.04" ry=".94" transform="matrix(.55861399 -.82942776 .82942776 .55861399 147.92 412.48)"/><path d="m487.32 283.25s.39-20.26-9.73-31.55" fill="#2a3993"/><path d="m596.58 272.86a73 73 0 0 1 -14.83 4.28c1.43 9.66-1.49 21.07-3.47 33.6l-4.8 22.3-5.82 24.74-8.07.39c-1.05 0-2.09.13-3.13.26a223.88 223.88 0 0 1 -45.27 1.14c-3.84-.29-7.86-.75-11-3-5.31-3.75-6.24-10.89-6.31-17.58 7.47 0 15.09 1.71 22.53 3 11 1.88 23.26 2.51 32.27-4.05s12.15-18.28 13.26-29.26.79-22.4 5-32.58c2-4.73 4.87-9 7.32-13.49a79.37 79.37 0 0 0 9.19-45.48 115.68 115.68 0 0 0 -5.75-24.82 117.74 117.74 0 0 1 29.62 41.58c3.33 7.86 7.23 16.88 8.7 26.61a4.63 4.63 0 0 1 -2.16 4.67c-5.62 3.42-13.27 6.16-17.28 7.69z" fill="#2e3e99" opacity=".8"/><path d="m496.39 148.1s13.22 3.21 19.51 2.77c0 0-12.62 2.79-22-1.08" fill="#ff9976"/><ellipse cx="566.09" cy="285.78" fill="#2a3993" rx="9.64" ry="7.16" transform="matrix(.42956568 -.90303562 .90303562 .42956568 64.86 674.25)"/><ellipse cx="570.04" cy="267.53" fill="#2a3993" rx="2.63" ry="4.24"/><circle cx="561.86" cy="271.39" fill="#2a3993" r="2.38"/><ellipse cx="544.89" cy="339.85" fill="#2a3993" rx="7.16" ry="9.64" transform="matrix(.37460659 -.92718385 .92718385 .37460659 25.65 717.72)"/><ellipse cx="526.42" cy="337" fill="#2a3993" rx="4.24" ry="2.63" transform="matrix(.99820864 -.05982904 .05982904 .99820864 -19.24 32.14)"/><circle cx="530.77" cy="344.94" fill="#2a3993" r="2.38"/><path d="m468.44 169.67a5.85 5.85 0 0 1 -5.71-4.62l-5.06-23.62a18.65 18.65 0 0 1 36.48-7.82l5.06 23.62a5.84 5.84 0 0 1 -11.43 2.45l-5.06-23.62a7 7 0 0 0 -13.62 2.94l5.07 23.62a5.85 5.85 0 0 1 -4.5 6.94 5.71 5.71 0 0 1 -1.23.11z" fill="#ffa910"/><path d="m581.66 276.52s-11.62-9.93-17-23.56" fill="none" stroke="#1c2f7f" stroke-linecap="round" stroke-linejoin="round"/><ellipse cx="537.34" cy="364.13" fill="#fff" rx="1.67" ry="2.2"/><ellipse cx="536.96" cy="376.91" fill="#fff" rx="1.67" ry="2.2" transform="matrix(.99820864 -.05982904 .05982904 .99820864 -21.61 32.84)"/><ellipse cx="537.85" cy="386.14" fill="#fff" rx="1.67" ry="2.2" transform="matrix(.9640954 -.26555612 .26555612 .9640954 -83.24 156.71)"/><path d="m512.63 221.1h15.77a0 0 0 0 1 0 0v292.63a7.89 7.89 0 0 1 -7.89 7.89 7.89 7.89 0 0 1 -7.89-7.89v-292.63a0 0 0 0 1 0 0z" fill="#e69056" transform="matrix(.12186934 -.99254615 .99254615 .12186934 88.47 842.71)"/><path d="m669.66 389.68a7.9 7.9 0 0 1 -8.79 6.87l-290.45-35.68.85-6.95 290 35.62a7.88 7.88 0 0 0 7.82-3.94 7.78 7.78 0 0 1 .57 4.08z" fill="#d3793c"/><path d="m372.91 350.14s24.2 3.26 43.94-1-.78-.53-.78-.53 68.14 19.93 100.86 20.23a596.59 596.59 0 0 1 65.14 4.67s65.43 18.69 85.93 9.93" fill="none" stroke="#fcb686" stroke-miterlimit="10"/><path d="m370.87 356.86s25.53 7.76 45.28 3.5-.3 1.17-.3 1.17 92.31 11.69 125 12 40 11.39 40 11.39 68.06 14 88.51 5.26" fill="none" stroke="#fcb686" stroke-miterlimit="10"/><rect fill="#f7c4a5" height="26.16" rx="7.64" transform="matrix(.96106903 .27630838 -.27630838 .96106903 115.31 -101.9)" width="36.81" x="400.86" y="345.17"/><ellipse cx="409.36" cy="350.33" fill="#fff" rx="3.36" ry="2.41" transform="matrix(.69603812 -.71800483 .71800483 .69603812 -127.11 400.44)"/><ellipse cx="414.91" cy="347.87" fill="#fff" rx="1.04" ry=".94" transform="matrix(.66588167 -.74605738 .74605738 .66588167 -120.9 425.78)"/><path d="m438.45 357.7-3 10.46a7.63 7.63 0 0 1 -9.45 5.23l-20.69-5.95a7.63 7.63 0 0 1 -5.23-9.45l.17-.6a7.52 7.52 0 0 0 3.46 2.13l20.7 6a7.65 7.65 0 0 0 9.45-5.23l2.83-9.86a7.6 7.6 0 0 1 1.76 7.27z" fill="#ff9976" opacity=".6"/><rect fill="#f7c4a5" height="26.16" rx="7.64" transform="matrix(.98965139 .14349262 -.14349262 .98965139 60.38 -78.22)" width="36.81" x="553.73" y="366.21"/><path d="m591.13 376.59-1.56 10.78a7.64 7.64 0 0 1 -8.65 6.46l-21.31-3.1a7.62 7.62 0 0 1 -6.46-8.65l.29-2a7.6 7.6 0 0 0 6.17 5.24l21.31 3.09a7.64 7.64 0 0 0 8.65-6.46l1.27-8.78a7.5 7.5 0 0 1 .29 3.42z" fill="#ff9976" opacity=".6"/><rect fill="#a8d7e5" height="25.14" rx="3.18" transform="matrix(.99043736 .13796316 -.13796316 .99043736 52.09 -46.89)" width="27.5" x="350.4" y="339.61"/><g fill="#ffa910"><path d="m458.86 146.61s-2.14 12.51-.63 21.29c0 0-.17-14.7 5.72-19.25"/><path d="m460.81 142.63s-2.14 12.51-.63 21.29c0 0-.16-14.7 5.72-19.25"/><path d="m457.83 138s-2.14 12.51-.64 21.3c0 0-.16-14.71 5.73-19.26"/><path d="m459.78 134s-2.14 12.51-.64 21.3c0 0-.16-14.71 5.73-19.26"/><path d="m485.78 145.64s-2.14 12.51-.63 21.29c0 0-.17-14.7 5.72-19.25"/><path d="m487.73 141.66s-2.14 12.51-.63 21.29c0 0-.17-14.7 5.72-19.25"/><path d="m484.74 137s-2.13 12.51-.63 21.3c0 0-.16-14.71 5.73-19.26"/><path d="m486.7 133s-2.14 12.51-.64 21.3c0 0-.16-14.71 5.73-19.26"/><path d="m494.9 140.36s6.69 11.28 8.14 20.4c0 0-5-14.33-12.93-16.38"/><path d="m491.4 137.29s6.69 11.27 8.14 20.39c0 0-5-14.32-12.93-16.37"/><path d="m493 131.55s6.69 11.28 8.14 20.4c0 0-5-14.33-12.93-16.38"/><path d="m489.48 128.47s6.7 11.28 8.14 20.4c0 0-5-14.33-12.92-16.38"/><path d="m470.78 147.75s6.56 11.35 7.9 20.49c0 0-4.81-14.39-12.74-16.53"/><path d="m467.31 144.63s6.56 11.35 7.9 20.49c0 0-4.8-14.38-12.74-16.52"/><path d="m469 138.92s6.57 11.35 7.91 20.49c0 0-4.81-14.39-12.74-16.53"/><path d="m465.5 135.8s6.56 11.35 7.9 20.49c0 0-4.81-14.39-12.74-16.53"/></g><path d="m460.3 140.08s-.76-14.21 13.47-15.84" fill="none" stroke="#ffcb78" stroke-linecap="round" stroke-linejoin="round" stroke-width="3"/><path d="m529.55 183.7c-8.12 6.1-8.15 31-8.15 31a48.13 48.13 0 0 0 -9.17-27.7l6.08.73z" fill="#172975"/><ellipse cx="468.43" cy="98.5" fill="#392624" rx="4.41" ry="7.89"/><ellipse cx="465.47" cy="102.54" fill="#fff" rx="1.61" ry="2.47"/><circle cx="485.34" cy="573.07" fill="#fff" r="4.55"/><circle cx="597.25" cy="559.06" fill="#fff" r="4.55"/><path d="m725.88 569.5c-3.34-.37-6.66-.93-10-1.59-1.88-.37-2.69 2.52-.79 2.9 3.56.71 7.14 1.29 10.75 1.69 1.92.21 1.91-2.79 0-3z" fill="#fff"/><path d="m470.94 459.85c0 8.8-6.8 15.94-15.2 15.94s-15.19-7.14-15.19-15.94a16.07 16.07 0 0 1 .22-2.71 15.08 15.08 0 0 0 29.94 0 16.07 16.07 0 0 1 .23 2.71z" fill="#ffeac5"/><path d="m635.1 479.23c0 8.8-6.8 15.94-15.2 15.94s-15.19-7.14-15.19-15.94a16 16 0 0 1 .23-2.7 15.08 15.08 0 0 0 29.93 0 16 16 0 0 1 .23 2.7z" fill="#ffeac5"/><path d="m467 220c6.89-13.27 15.43-24.93 36.27-27.67 0 0-31 27.48-41.56 75.2-2.71-15.96-2.14-33.16 5.29-47.53z" fill="#7689d6"/><ellipse cx="470.26" cy="235.36" fill="#2a3993" rx="5.02" ry="6.76" transform="matrix(.9754193 -.22035696 .22035696 .9754193 -40.31 109.42)"/><ellipse cx="494.68" cy="200.57" fill="#2a3993" rx="2.97" ry="1.84" transform="matrix(.99820864 -.05982904 .05982904 .99820864 -11.13 29.99)"/><circle cx="490.17" cy="207.48" fill="#2a3993" r="1.67"/><ellipse cx="416.82" cy="568.52" fill="#8c7c7c" rx="9.87" ry="5.64" transform="matrix(.8660254 -.5 .5 .8660254 -228.42 284.58)"/><path d="m444.38 573.07s-1.16-12.66-7.62-14" fill="none" stroke="#392624" stroke-miterlimit="10"/><path d="m451.16 573.07s-1.17-12.66-7.62-14" fill="none" stroke="#392624" stroke-miterlimit="10"/><path d="m457.58 573.07s-1.17-12.66-7.62-14" fill="none" stroke="#392624" stroke-miterlimit="10"/><path d="m645.66 570.62s1.16-12.66 7.61-14" fill="none" stroke="#392624" stroke-miterlimit="10"/><path d="m638.88 570.62s1.17-12.66 7.62-14" fill="none" stroke="#392624" stroke-miterlimit="10"/><path d="m632.46 570.62s1.17-12.66 7.62-14" fill="none" stroke="#392624" stroke-miterlimit="10"/><path d="m522.73 90.77a12.7 12.7 0 0 0 11.16-7.47c.41-.87-.88-1.63-1.3-.76-1.81 3.82-5.51 6.73-9.86 6.73a.75.75 0 0 0 0 1.5z" fill="#ff9976"/><path d="m523.32 90a38.55 38.55 0 0 1 7.68 4.76.32.32 0 0 0 .48-.4c-1.17-2-3.1-5-4.62-5.71" fill="#ff9976"/><ellipse cx="166.09" cy="506.06" fill="#fff" rx="5.28" ry="2.04" transform="matrix(.58283231 -.81259245 .81259245 .58283231 -341.93 346.07)"/><ellipse cx="164.05" cy="514.56" fill="#fff" rx="2.26" ry=".87" transform="matrix(.58283231 -.81259245 .81259245 .58283231 -349.69 347.96)"/><path d="m111.35 449.92h28.84q10.26 0 15.6 4.94t5.34 14.22a19.3 19.3 0 0 1 -2 9.34 17 17 0 0 1 -6.17 6.27 23.4 23.4 0 0 1 7.06 2.42 15.43 15.43 0 0 1 4.74 4 15 15 0 0 1 2.62 5.33 24.81 24.81 0 0 1 .79 6.32 22.36 22.36 0 0 1 -1.83 9.29 18.88 18.88 0 0 1 -5.13 6.81 21.88 21.88 0 0 1 -8.05 4.15 38.22 38.22 0 0 1 -10.67 1.38h-31.14zm19.35 29.24h3.56q9.09 0 9.09-7.21t-9.09-7.21h-3.56zm0 30.22h4.3q7.31 0 10.47-1.88a7.32 7.32 0 0 0 0-12.05q-3.16-1.87-10.47-1.87h-4.3z" fill="#d68a03"/><path d="m68.6 608a173.57 173.57 0 0 0 29.94-48.92c4.1 3 12.2 11.94 16.3 14.91 4.31-3.2 4.14-13.06 7.3-17.39 2 .82 11.3 8 13.36 8.81 12.11-22.79 17.43-51.72 30.33-74.07 35 32.13 70.39 64.8 95.45 105.14-62.92 15.8-126.51 17.92-191.12 12.07" fill="#eaeaea"/><path d="m261.28 596.27c-62.92 15.8-126.51 17.92-191.12 12.07l-1.55-.56a113.22 113.22 0 0 0 7.8-9.44c59.2 4.35 145.94 3.84 162.57-33 3.49 4.55 19.91 24.19 22.3 30.93z" fill="#d1d1d1"/><path d="m214.29 562.17a42.3 42.3 0 0 1 -7.36 14 50.3 50.3 0 0 1 -11.66 10.93 48.14 48.14 0 0 1 -14.58 6.61 44.89 44.89 0 0 1 -15.75 1.21 98.93 98.93 0 0 0 14.79-4.21 68.1 68.1 0 0 0 13.27-6.97 73 73 0 0 0 11.53-9.66c1.76-1.82 3.48-3.7 5.08-5.7s3.21-4.04 4.68-6.21z" fill="#d1d1d1"/><path d="m213.72 561.27a42.46 42.46 0 0 1 -7.35 14 50.55 50.55 0 0 1 -11.67 10.93 48.14 48.14 0 0 1 -14.58 6.61 44.89 44.89 0 0 1 -15.75 1.19 98.93 98.93 0 0 0 14.79-4.21 68.1 68.1 0 0 0 13.31-6.93 73.56 73.56 0 0 0 11.53-9.68c1.76-1.82 3.48-3.7 5.08-5.7s3.17-4.04 4.64-6.21z" fill="#fff"/><path d="m172.6 501.51a23.73 23.73 0 0 1 4.93 8 24.2 24.2 0 0 1 1.59 9.4 22.6 22.6 0 0 1 -2.22 9.27 23.78 23.78 0 0 1 -2.37 4.1 6 6 0 0 1 -.72.94l-.78.89c-.52.58-1.05 1.16-1.58 1.72.37-.69.75-1.38 1.13-2a18.86 18.86 0 0 0 1.11-2 37.26 37.26 0 0 0 1.77-4.19 26.76 26.76 0 0 0 1.66-8.74 29.36 29.36 0 0 0 -1.07-8.86 39.65 39.65 0 0 0 -3.45-8.53z" fill="#d1d1d1"/><path d="m172 501.48a25.39 25.39 0 0 1 4 8.2 29.14 29.14 0 0 1 1.19 9.15v1.16l-.13 1.16c-.11.76-.15 1.54-.32 2.29a27 27 0 0 1 -1.28 4.45 15.85 15.85 0 0 1 -.87 2.13l-1.07 2a15 15 0 0 1 -1.26 1.91c-.44.62-.89 1.23-1.36 1.82.29-.7.58-1.4.88-2.09a19.4 19.4 0 0 0 .85-2.06 38.29 38.29 0 0 0 1.35-4.22 35.15 35.15 0 0 0 1.25-8.64 38.89 38.89 0 0 0 -.7-8.73 48.25 48.25 0 0 0 -2.53-8.53z" fill="#fff"/><path d="m130.87 582.75a23.61 23.61 0 0 1 -9.09 2.35 24.36 24.36 0 0 1 -9.45-1.27 22.79 22.79 0 0 1 -8.21-4.86 24 24 0 0 1 -3.21-3.48 5.94 5.94 0 0 1 -.68-1l-.62-1c-.41-.67-.8-1.35-1.18-2q.84.82 1.62 1.68a17.81 17.81 0 0 0 1.6 1.65 34.27 34.27 0 0 0 3.47 2.93 26.85 26.85 0 0 0 7.85 4.17 29.31 29.31 0 0 0 8.79 1.6 40.29 40.29 0 0 0 9.11-.77z" fill="#d1d1d1"/><path d="m131.09 582.17a25.46 25.46 0 0 1 -9 1.39 29.2 29.2 0 0 1 -9.09-1.56l-1.09-.37-1.07-.47c-.7-.33-1.43-.6-2.1-1a27.75 27.75 0 0 1 -3.87-2.54 16.74 16.74 0 0 1 -1.78-1.47l-1.62-1.62a13.73 13.73 0 0 1 -1.46-1.77c-.46-.6-.91-1.22-1.34-1.83.59.48 1.17 1 1.74 1.45a17.75 17.75 0 0 0 1.72 1.42 37 37 0 0 0 3.63 2.54 35 35 0 0 0 7.89 3.75 39.16 39.16 0 0 0 8.54 1.92 49.09 49.09 0 0 0 8.9.16z" fill="#fff"/><path d="m121.89 434.83h6.62v15.58h-6.62z" fill="#d68a03"/><path d="m136.6 434.83h6.62v15.58h-6.62z" fill="#d68a03"/><path d="m121.89 521.41h6.62v15.58h-6.62z" fill="#d68a03"/><path d="m136.6 521.41h6.62v15.58h-6.62z" fill="#d68a03"/><path d="m75.88 470.19a78.57 78.57 0 0 1 11.85-20.64" fill="none" stroke="#ffe3b6" stroke-linecap="round" stroke-linejoin="round" stroke-width="4"/><circle cx="94.82" cy="444.68" fill="#ffe3b6" r="2.58"/><ellipse cx="545.26" cy="634.02" fill="#d5ecf5" opacity=".4" rx="16.59" ry="7.01"/><ellipse cx="411.04" cy="530.05" fill="#d5ecf5" opacity=".4" rx="16.59" ry="7.01"/><ellipse cx="513.14" cy="623.42" fill="#d5ecf5" rx="7.75" ry="3.59"/><ellipse cx="493.07" cy="95.12" fill="#392624" rx="4.41" ry="7.89"/><ellipse cx="490.16" cy="98.49" fill="#fff" rx="1.61" ry="2.47"/><ellipse cx="88.54" cy="588.76" fill="#fff" rx="2.26" ry=".87" transform="matrix(.58283231 -.81259245 .81259245 .58283231 -441.49 317.55)"/><circle cx="92.16" cy="584.31" fill="#fff" r="1.43"/><ellipse cx="64.31" cy="442.22" fill="#fff" rx="3.97" ry="1.54" transform="matrix(.58283231 -.81259245 .81259245 .58283231 -332.52 236.73)"/><circle cx="70.67" cy="434.4" fill="#fff" r="2.52"/><circle cx="140.04" cy="593.98" fill="#d1d1d1" r="1.54"/><circle cx="202.36" cy="541.24" fill="#d1d1d1" r="1.54"/><circle cx="68.15" cy="596.71" fill="#686868" r="1.54"/><circle cx="52.06" cy="556.57" fill="#898989" r=".25"/><circle cx="63.35" cy="559.76" fill="#898989" r=".81"/><circle cx="78.6" cy="575.17" fill="#686868" r=".88"/><circle cx="224.81" cy="542.78" fill="#686868" r=".88"/><circle cx="86.05" cy="573.41" fill="#686868" r=".88"/><circle cx="48.45" cy="559.72" fill="#898989" r="1.54"/><circle cx="41.47" cy="569.29" fill="#898989" r=".55"/><circle cx="17.93" cy="583.7" fill="#898989" r=".82"/><circle cx="110.53" cy="590.43" fill="#d1d1d1" r=".82"/><circle cx="131.09" cy="586.73" fill="#d1d1d1" r=".82"/><circle cx="56.52" cy="575.05" fill="#898989" r=".11"/><circle cx="244.32" cy="531.19" fill="#898989" r="1.54"/><circle cx="255.01" cy="536.28" fill="#898989" r=".55"/><circle cx="273.54" cy="556.73" fill="#898989" r=".82"/><circle cx="261.85" cy="573.41" fill="#686868" r="1.54"/><path d="m535 54.45s18.4-14.33 14.31-32.89" fill="none" stroke="#392624" stroke-linecap="round" stroke-linejoin="round" stroke-width="7"/><path d="m538.21 47.2s9.33-14.34 23.15-12.5" fill="none" stroke="#392624" stroke-linecap="round" stroke-linejoin="round" stroke-width="2.93"/><path d="m491.17 31.57s-4-23-22.33-28.07" fill="none" stroke="#392624" stroke-linecap="round" stroke-linejoin="round" stroke-width="7"/><path d="m487.4 38s-11.27-20.41-.22-35.87" fill="none" stroke="#392624" stroke-linecap="round" stroke-linejoin="round" stroke-width="4"/><path d="m434.87 508.45s13.41 10.68 49.05 6.78c0 0-26.83 6.84-47 2.84" fill="#ed970f"/><path d="m642.62 503.55s-18.45 10.94-49.92 10.34c0 0 24.11 7.07 50.17 0" fill="#ed970f"/></svg>